<svg width="879" height="230" viewBox="0 0 879 230" fill="none" xmlns="http://www.w3.org/2000/svg">
<rect x="1" y="1" width="278" height="228" rx="19" fill="white"/>
<rect x="65" y="40" width="150" height="16" rx="8" fill="#1A1A1A"/>
<rect x="40" y="77" width="200" height="12" rx="6" fill="#B7BFC8"/>
<rect x="70" y="99" width="140" height="12" rx="6" fill="#B7BFC8"/>
<rect x="45" y="152" width="190" height="48" rx="10" fill="#107AFF"/>
<rect x="70" y="170" width="140" height="12" rx="6" fill="white"/>
<rect x="1" y="1" width="278" height="228" rx="19" stroke="#BAC1CE" stroke-width="2"/>
<path d="M388.156 124.766C387.625 132.109 384.906 137.891 380 142.109C375.125 146.328 368.688 148.438 360.688 148.438C351.938 148.438 345.047 145.5 340.016 139.625C335.016 133.719 332.516 125.625 332.516 115.344V111.172C332.516 104.609 333.672 98.8281 335.984 93.8281C338.297 88.8281 341.594 85 345.875 82.3438C350.188 79.6562 355.188 78.3125 360.875 78.3125C368.75 78.3125 375.094 80.4219 379.906 84.6406C384.719 88.8594 387.5 94.7812 388.25 102.406H374.188C373.844 98 372.609 94.8125 370.484 92.8438C368.391 90.8438 365.188 89.8438 360.875 89.8438C356.188 89.8438 352.672 91.5312 350.328 94.9062C348.016 98.25 346.828 103.453 346.766 110.516V115.672C346.766 123.047 347.875 128.438 350.094 131.844C352.344 135.25 355.875 136.953 360.688 136.953C365.031 136.953 368.266 135.969 370.391 134C372.547 132 373.781 128.922 374.094 124.766H388.156ZM394.391 121.672C394.391 116.641 395.359 112.156 397.297 108.219C399.234 104.281 402.016 101.234 405.641 99.0781C409.297 96.9219 413.531 95.8438 418.344 95.8438C425.188 95.8438 430.766 97.9375 435.078 102.125C439.422 106.312 441.844 112 442.344 119.188L442.438 122.656C442.438 130.438 440.266 136.688 435.922 141.406C431.578 146.094 425.75 148.438 418.438 148.438C411.125 148.438 405.281 146.094 400.906 141.406C396.562 136.719 394.391 130.344 394.391 122.281V121.672ZM407.938 122.656C407.938 127.469 408.844 131.156 410.656 133.719C412.469 136.25 415.062 137.516 418.438 137.516C421.719 137.516 424.281 136.266 426.125 133.766C427.969 131.234 428.891 127.203 428.891 121.672C428.891 116.953 427.969 113.297 426.125 110.703C424.281 108.109 421.688 106.812 418.344 106.812C415.031 106.812 412.469 108.109 410.656 110.703C408.844 113.266 407.938 117.25 407.938 122.656ZM463.484 96.7812L463.906 102.453C467.5 98.0469 472.359 95.8438 478.484 95.8438C485.016 95.8438 489.5 98.4219 491.938 103.578C495.5 98.4219 500.578 95.8438 507.172 95.8438C512.672 95.8438 516.766 97.4531 519.453 100.672C522.141 103.859 523.484 108.672 523.484 115.109V147.5H509.891V115.156C509.891 112.281 509.328 110.188 508.203 108.875C507.078 107.531 505.094 106.859 502.25 106.859C498.188 106.859 495.375 108.797 493.812 112.672L493.859 147.5H480.312V115.203C480.312 112.266 479.734 110.141 478.578 108.828C477.422 107.516 475.453 106.859 472.672 106.859C468.828 106.859 466.047 108.453 464.328 111.641V147.5H450.781V96.7812H463.484ZM579.594 122.609C579.594 130.422 577.812 136.688 574.25 141.406C570.719 146.094 565.938 148.438 559.906 148.438C554.781 148.438 550.641 146.656 547.484 143.094V167H533.938V96.7812H546.5L546.969 101.75C550.25 97.8125 554.531 95.8438 559.812 95.8438C566.062 95.8438 570.922 98.1562 574.391 102.781C577.859 107.406 579.594 113.781 579.594 121.906V122.609ZM566.047 121.625C566.047 116.906 565.203 113.266 563.516 110.703C561.859 108.141 559.438 106.859 556.25 106.859C552 106.859 549.078 108.484 547.484 111.734V132.5C549.141 135.844 552.094 137.516 556.344 137.516C562.812 137.516 566.047 132.219 566.047 121.625ZM585.922 121.672C585.922 116.641 586.891 112.156 588.828 108.219C590.766 104.281 593.547 101.234 597.172 99.0781C600.828 96.9219 605.062 95.8438 609.875 95.8438C616.719 95.8438 622.297 97.9375 626.609 102.125C630.953 106.312 633.375 112 633.875 119.188L633.969 122.656C633.969 130.438 631.797 136.688 627.453 141.406C623.109 146.094 617.281 148.438 609.969 148.438C602.656 148.438 596.812 146.094 592.438 141.406C588.094 136.719 585.922 130.344 585.922 122.281V121.672ZM599.469 122.656C599.469 127.469 600.375 131.156 602.188 133.719C604 136.25 606.594 137.516 609.969 137.516C613.25 137.516 615.812 136.266 617.656 133.766C619.5 131.234 620.422 127.203 620.422 121.672C620.422 116.953 619.5 113.297 617.656 110.703C615.812 108.109 613.219 106.812 609.875 106.812C606.562 106.812 604 108.109 602.188 110.703C600.375 113.266 599.469 117.25 599.469 122.656ZM654.781 96.7812L655.203 102.641C658.828 98.1094 663.688 95.8438 669.781 95.8438C675.156 95.8438 679.156 97.4219 681.781 100.578C684.406 103.734 685.75 108.453 685.812 114.734V147.5H672.266V115.062C672.266 112.188 671.641 110.109 670.391 108.828C669.141 107.516 667.062 106.859 664.156 106.859C660.344 106.859 657.484 108.484 655.578 111.734V147.5H642.031V96.7812H654.781ZM719.469 148.438C712.031 148.438 705.969 146.156 701.281 141.594C696.625 137.031 694.297 130.953 694.297 123.359V122.047C694.297 116.953 695.281 112.406 697.25 108.406C699.219 104.375 702 101.281 705.594 99.125C709.219 96.9375 713.344 95.8438 717.969 95.8438C724.906 95.8438 730.359 98.0312 734.328 102.406C738.328 106.781 740.328 112.984 740.328 121.016V126.547H708.031C708.469 129.859 709.781 132.516 711.969 134.516C714.188 136.516 716.984 137.516 720.359 137.516C725.578 137.516 729.656 135.625 732.594 131.844L739.25 139.297C737.219 142.172 734.469 144.422 731 146.047C727.531 147.641 723.688 148.438 719.469 148.438ZM717.922 106.812C715.234 106.812 713.047 107.719 711.359 109.531C709.703 111.344 708.641 113.938 708.172 117.312H727.016V116.234C726.953 113.234 726.141 110.922 724.578 109.297C723.016 107.641 720.797 106.812 717.922 106.812ZM760.531 96.7812L760.953 102.641C764.578 98.1094 769.438 95.8438 775.531 95.8438C780.906 95.8438 784.906 97.4219 787.531 100.578C790.156 103.734 791.5 108.453 791.562 114.734V147.5H778.016V115.062C778.016 112.188 777.391 110.109 776.141 108.828C774.891 107.516 772.812 106.859 769.906 106.859C766.094 106.859 763.234 108.484 761.328 111.734V147.5H747.781V96.7812H760.531ZM818.094 84.3125V96.7812H826.766V106.719H818.094V132.031C818.094 133.906 818.453 135.25 819.172 136.062C819.891 136.875 821.266 137.281 823.297 137.281C824.797 137.281 826.125 137.172 827.281 136.953V147.219C824.625 148.031 821.891 148.438 819.078 148.438C809.578 148.438 804.734 143.641 804.547 134.047V106.719H797.141V96.7812H804.547V84.3125H818.094ZM861.781 133.484C861.781 131.828 860.953 130.531 859.297 129.594C857.672 128.625 855.047 127.766 851.422 127.016C839.359 124.484 833.328 119.359 833.328 111.641C833.328 107.141 835.188 103.391 838.906 100.391C842.656 97.3594 847.547 95.8438 853.578 95.8438C860.016 95.8438 865.156 97.3594 869 100.391C872.875 103.422 874.812 107.359 874.812 112.203H861.266C861.266 110.266 860.641 108.672 859.391 107.422C858.141 106.141 856.188 105.5 853.531 105.5C851.25 105.5 849.484 106.016 848.234 107.047C846.984 108.078 846.359 109.391 846.359 110.984C846.359 112.484 847.062 113.703 848.469 114.641C849.906 115.547 852.312 116.344 855.688 117.031C859.062 117.688 861.906 118.438 864.219 119.281C871.375 121.906 874.953 126.453 874.953 132.922C874.953 137.547 872.969 141.297 869 144.172C865.031 147.016 859.906 148.438 853.625 148.438C849.375 148.438 845.594 147.688 842.281 146.188C839 144.656 836.422 142.578 834.547 139.953C832.672 137.297 831.734 134.438 831.734 131.375H844.578C844.703 133.781 845.594 135.625 847.25 136.906C848.906 138.188 851.125 138.828 853.906 138.828C856.5 138.828 858.453 138.344 859.766 137.375C861.109 136.375 861.781 135.078 861.781 133.484Z" fill="url(#paint0_linear_6_2)"/>
<defs>
<linearGradient id="paint0_linear_6_2" x1="328" y1="59" x2="879" y2="172" gradientUnits="userSpaceOnUse">
<stop stop-color="#2074D4"/>
<stop offset="1" stop-color="#1FA1CC"/>
</linearGradient>
</defs>
</svg>
