<svg width="1451" height="230" viewBox="0 0 1451 230" fill="none" xmlns="http://www.w3.org/2000/svg">
<rect x="1" y="1" width="278" height="228" rx="19" fill="white"/>
<rect x="65" y="40" width="150" height="16" rx="8" fill="#1A1A1A"/>
<rect x="40" y="77" width="200" height="12" rx="6" fill="#B7BFC8"/>
<rect x="70" y="99" width="140" height="12" rx="6" fill="#B7BFC8"/>
<rect x="46" y="152" width="188" height="48" rx="10" fill="#107AFF"/>
<path d="M86.1641 178.316C86.0312 180.152 85.3516 181.598 84.125 182.652C82.9062 183.707 81.2969 184.234 79.2969 184.234C77.1094 184.234 75.3867 183.5 74.1289 182.031C72.8789 180.555 72.2539 178.531 72.2539 175.961V174.918C72.2539 173.277 72.543 171.832 73.1211 170.582C73.6992 169.332 74.5234 168.375 75.5938 167.711C76.6719 167.039 77.9219 166.703 79.3438 166.703C81.3125 166.703 82.8984 167.23 84.1016 168.285C85.3047 169.34 86 170.82 86.1875 172.727H82.6719C82.5859 171.625 82.2773 170.828 81.7461 170.336C81.2227 169.836 80.4219 169.586 79.3438 169.586C78.1719 169.586 77.293 170.008 76.707 170.852C76.1289 171.688 75.832 172.988 75.8164 174.754V176.043C75.8164 177.887 76.0938 179.234 76.6484 180.086C77.2109 180.938 78.0938 181.363 79.2969 181.363C80.3828 181.363 81.1914 181.117 81.7227 180.625C82.2617 180.125 82.5703 179.355 82.6484 178.316H86.1641ZM87.7227 177.543C87.7227 176.285 87.9648 175.164 88.4492 174.18C88.9336 173.195 89.6289 172.434 90.5352 171.895C91.4492 171.355 92.5078 171.086 93.7109 171.086C95.4219 171.086 96.8164 171.609 97.8945 172.656C98.9805 173.703 99.5859 175.125 99.7109 176.922L99.7344 177.789C99.7344 179.734 99.1914 181.297 98.1055 182.477C97.0195 183.648 95.5625 184.234 93.7344 184.234C91.9062 184.234 90.4453 183.648 89.3516 182.477C88.2656 181.305 87.7227 179.711 87.7227 177.695V177.543ZM91.1094 177.789C91.1094 178.992 91.3359 179.914 91.7891 180.555C92.2422 181.188 92.8906 181.504 93.7344 181.504C94.5547 181.504 95.1953 181.191 95.6562 180.566C96.1172 179.934 96.3477 178.926 96.3477 177.543C96.3477 176.363 96.1172 175.449 95.6562 174.801C95.1953 174.152 94.5469 173.828 93.7109 173.828C92.8828 173.828 92.2422 174.152 91.7891 174.801C91.3359 175.441 91.1094 176.438 91.1094 177.789ZM104.996 171.32L105.102 172.738C106 171.637 107.215 171.086 108.746 171.086C110.379 171.086 111.5 171.73 112.109 173.02C113 171.73 114.27 171.086 115.918 171.086C117.293 171.086 118.316 171.488 118.988 172.293C119.66 173.09 119.996 174.293 119.996 175.902V184H116.598V175.914C116.598 175.195 116.457 174.672 116.176 174.344C115.895 174.008 115.398 173.84 114.688 173.84C113.672 173.84 112.969 174.324 112.578 175.293L112.59 184H109.203V175.926C109.203 175.191 109.059 174.66 108.77 174.332C108.48 174.004 107.988 173.84 107.293 173.84C106.332 173.84 105.637 174.238 105.207 175.035V184H101.82V171.32H104.996ZM134.023 177.777C134.023 179.73 133.578 181.297 132.688 182.477C131.805 183.648 130.609 184.234 129.102 184.234C127.82 184.234 126.785 183.789 125.996 182.898V188.875H122.609V171.32H125.75L125.867 172.562C126.688 171.578 127.758 171.086 129.078 171.086C130.641 171.086 131.855 171.664 132.723 172.82C133.59 173.977 134.023 175.57 134.023 177.602V177.777ZM130.637 177.531C130.637 176.352 130.426 175.441 130.004 174.801C129.59 174.16 128.984 173.84 128.188 173.84C127.125 173.84 126.395 174.246 125.996 175.059V180.25C126.41 181.086 127.148 181.504 128.211 181.504C129.828 181.504 130.637 180.18 130.637 177.531ZM135.605 177.543C135.605 176.285 135.848 175.164 136.332 174.18C136.816 173.195 137.512 172.434 138.418 171.895C139.332 171.355 140.391 171.086 141.594 171.086C143.305 171.086 144.699 171.609 145.777 172.656C146.863 173.703 147.469 175.125 147.594 176.922L147.617 177.789C147.617 179.734 147.074 181.297 145.988 182.477C144.902 183.648 143.445 184.234 141.617 184.234C139.789 184.234 138.328 183.648 137.234 182.477C136.148 181.305 135.605 179.711 135.605 177.695V177.543ZM138.992 177.789C138.992 178.992 139.219 179.914 139.672 180.555C140.125 181.188 140.773 181.504 141.617 181.504C142.438 181.504 143.078 181.191 143.539 180.566C144 179.934 144.23 178.926 144.23 177.543C144.23 176.363 144 175.449 143.539 174.801C143.078 174.152 142.43 173.828 141.594 173.828C140.766 173.828 140.125 174.152 139.672 174.801C139.219 175.441 138.992 176.438 138.992 177.789ZM152.82 171.32L152.926 172.785C153.832 171.652 155.047 171.086 156.57 171.086C157.914 171.086 158.914 171.48 159.57 172.27C160.227 173.059 160.562 174.238 160.578 175.809V184H157.191V175.891C157.191 175.172 157.035 174.652 156.723 174.332C156.41 174.004 155.891 173.84 155.164 173.84C154.211 173.84 153.496 174.246 153.02 175.059V184H149.633V171.32H152.82ZM168.992 184.234C167.133 184.234 165.617 183.664 164.445 182.523C163.281 181.383 162.699 179.863 162.699 177.965V177.637C162.699 176.363 162.945 175.227 163.438 174.227C163.93 173.219 164.625 172.445 165.523 171.906C166.43 171.359 167.461 171.086 168.617 171.086C170.352 171.086 171.715 171.633 172.707 172.727C173.707 173.82 174.207 175.371 174.207 177.379V178.762H166.133C166.242 179.59 166.57 180.254 167.117 180.754C167.672 181.254 168.371 181.504 169.215 181.504C170.52 181.504 171.539 181.031 172.273 180.086L173.938 181.949C173.43 182.668 172.742 183.23 171.875 183.637C171.008 184.035 170.047 184.234 168.992 184.234ZM168.605 173.828C167.934 173.828 167.387 174.055 166.965 174.508C166.551 174.961 166.285 175.609 166.168 176.453H170.879V176.184C170.863 175.434 170.66 174.855 170.27 174.449C169.879 174.035 169.324 173.828 168.605 173.828ZM179.258 171.32L179.363 172.785C180.27 171.652 181.484 171.086 183.008 171.086C184.352 171.086 185.352 171.48 186.008 172.27C186.664 173.059 187 174.238 187.016 175.809V184H183.629V175.891C183.629 175.172 183.473 174.652 183.16 174.332C182.848 174.004 182.328 173.84 181.602 173.84C180.648 173.84 179.934 174.246 179.457 175.059V184H176.07V171.32H179.258ZM193.648 168.203V171.32H195.816V173.805H193.648V180.133C193.648 180.602 193.738 180.938 193.918 181.141C194.098 181.344 194.441 181.445 194.949 181.445C195.324 181.445 195.656 181.418 195.945 181.363V183.93C195.281 184.133 194.598 184.234 193.895 184.234C191.52 184.234 190.309 183.035 190.262 180.637V173.805H188.41V171.32H190.262V168.203H193.648ZM204.57 180.496C204.57 180.082 204.363 179.758 203.949 179.523C203.543 179.281 202.887 179.066 201.98 178.879C198.965 178.246 197.457 176.965 197.457 175.035C197.457 173.91 197.922 172.973 198.852 172.223C199.789 171.465 201.012 171.086 202.52 171.086C204.129 171.086 205.414 171.465 206.375 172.223C207.344 172.98 207.828 173.965 207.828 175.176H204.441C204.441 174.691 204.285 174.293 203.973 173.98C203.66 173.66 203.172 173.5 202.508 173.5C201.938 173.5 201.496 173.629 201.184 173.887C200.871 174.145 200.715 174.473 200.715 174.871C200.715 175.246 200.891 175.551 201.242 175.785C201.602 176.012 202.203 176.211 203.047 176.383C203.891 176.547 204.602 176.734 205.18 176.945C206.969 177.602 207.863 178.738 207.863 180.355C207.863 181.512 207.367 182.449 206.375 183.168C205.383 183.879 204.102 184.234 202.531 184.234C201.469 184.234 200.523 184.047 199.695 183.672C198.875 183.289 198.23 182.77 197.762 182.113C197.293 181.449 197.059 180.734 197.059 179.969H200.27C200.301 180.57 200.523 181.031 200.938 181.352C201.352 181.672 201.906 181.832 202.602 181.832C203.25 181.832 203.738 181.711 204.066 181.469C204.402 181.219 204.57 180.895 204.57 180.496Z" fill="white"/>
<rect x="1" y="1" width="278" height="228" rx="19" stroke="#BAC1CE" stroke-width="2"/>
<path d="M375.547 122.516H364.344V147.5H350.281V79.25H375.641C383.703 79.25 389.922 81.0469 394.297 84.6406C398.672 88.2344 400.859 93.3125 400.859 99.875C400.859 104.531 399.844 108.422 397.812 111.547C395.812 114.641 392.766 117.109 388.672 118.953L403.438 146.844V147.5H388.344L375.547 122.516ZM364.344 111.125H375.688C379.219 111.125 381.953 110.234 383.891 108.453C385.828 106.641 386.797 104.156 386.797 101C386.797 97.7812 385.875 95.25 384.031 93.4062C382.219 91.5625 379.422 90.6406 375.641 90.6406H364.344V111.125ZM434.047 148.438C426.609 148.438 420.547 146.156 415.859 141.594C411.203 137.031 408.875 130.953 408.875 123.359V122.047C408.875 116.953 409.859 112.406 411.828 108.406C413.797 104.375 416.578 101.281 420.172 99.125C423.797 96.9375 427.922 95.8438 432.547 95.8438C439.484 95.8438 444.938 98.0312 448.906 102.406C452.906 106.781 454.906 112.984 454.906 121.016V126.547H422.609C423.047 129.859 424.359 132.516 426.547 134.516C428.766 136.516 431.562 137.516 434.938 137.516C440.156 137.516 444.234 135.625 447.172 131.844L453.828 139.297C451.797 142.172 449.047 144.422 445.578 146.047C442.109 147.641 438.266 148.438 434.047 148.438ZM432.5 106.812C429.812 106.812 427.625 107.719 425.938 109.531C424.281 111.344 423.219 113.938 422.75 117.312H441.594V116.234C441.531 113.234 440.719 110.922 439.156 109.297C437.594 107.641 435.375 106.812 432.5 106.812ZM492.031 147.5C491.406 146.281 490.953 144.766 490.672 142.953C487.391 146.609 483.125 148.438 477.875 148.438C472.906 148.438 468.781 147 465.5 144.125C462.25 141.25 460.625 137.625 460.625 133.25C460.625 127.875 462.609 123.75 466.578 120.875C470.578 118 476.344 116.547 483.875 116.516H490.109V113.609C490.109 111.266 489.5 109.391 488.281 107.984C487.094 106.578 485.203 105.875 482.609 105.875C480.328 105.875 478.531 106.422 477.219 107.516C475.938 108.609 475.297 110.109 475.297 112.016H461.75C461.75 109.078 462.656 106.359 464.469 103.859C466.281 101.359 468.844 99.4062 472.156 98C475.469 96.5625 479.188 95.8438 483.312 95.8438C489.562 95.8438 494.516 97.4219 498.172 100.578C501.859 103.703 503.703 108.109 503.703 113.797V135.781C503.734 140.594 504.406 144.234 505.719 146.703V147.5H492.031ZM480.828 138.078C482.828 138.078 484.672 137.641 486.359 136.766C488.047 135.859 489.297 134.656 490.109 133.156V124.438H485.047C478.266 124.438 474.656 126.781 474.219 131.469L474.172 132.266C474.172 133.953 474.766 135.344 475.953 136.438C477.141 137.531 478.766 138.078 480.828 138.078ZM535.203 137.516C537.703 137.516 539.734 136.828 541.297 135.453C542.859 134.078 543.672 132.25 543.734 129.969H556.438C556.406 133.406 555.469 136.562 553.625 139.438C551.781 142.281 549.25 144.5 546.031 146.094C542.844 147.656 539.312 148.438 535.438 148.438C528.188 148.438 522.469 146.141 518.281 141.547C514.094 136.922 512 130.547 512 122.422V121.531C512 113.719 514.078 107.484 518.234 102.828C522.391 98.1719 528.094 95.8438 535.344 95.8438C541.688 95.8438 546.766 97.6562 550.578 101.281C554.422 104.875 556.375 109.672 556.438 115.672H543.734C543.672 113.047 542.859 110.922 541.297 109.297C539.734 107.641 537.672 106.812 535.109 106.812C531.953 106.812 529.562 107.969 527.938 110.281C526.344 112.562 525.547 116.281 525.547 121.438V122.844C525.547 128.062 526.344 131.812 527.938 134.094C529.531 136.375 531.953 137.516 535.203 137.516ZM580.391 84.3125V96.7812H589.062V106.719H580.391V132.031C580.391 133.906 580.75 135.25 581.469 136.062C582.188 136.875 583.562 137.281 585.594 137.281C587.094 137.281 588.422 137.172 589.578 136.953V147.219C586.922 148.031 584.188 148.438 581.375 148.438C571.875 148.438 567.031 143.641 566.844 134.047V106.719H559.438V96.7812H566.844V84.3125H580.391ZM641.609 137.516C644.109 137.516 646.141 136.828 647.703 135.453C649.266 134.078 650.078 132.25 650.141 129.969H662.844C662.812 133.406 661.875 136.562 660.031 139.438C658.188 142.281 655.656 144.5 652.438 146.094C649.25 147.656 645.719 148.438 641.844 148.438C634.594 148.438 628.875 146.141 624.688 141.547C620.5 136.922 618.406 130.547 618.406 122.422V121.531C618.406 113.719 620.484 107.484 624.641 102.828C628.797 98.1719 634.5 95.8438 641.75 95.8438C648.094 95.8438 653.172 97.6562 656.984 101.281C660.828 104.875 662.781 109.672 662.844 115.672H650.141C650.078 113.047 649.266 110.922 647.703 109.297C646.141 107.641 644.078 106.812 641.516 106.812C638.359 106.812 635.969 107.969 634.344 110.281C632.75 112.562 631.953 116.281 631.953 121.438V122.844C631.953 128.062 632.75 131.812 634.344 134.094C635.938 136.375 638.359 137.516 641.609 137.516ZM668.469 121.672C668.469 116.641 669.438 112.156 671.375 108.219C673.312 104.281 676.094 101.234 679.719 99.0781C683.375 96.9219 687.609 95.8438 692.422 95.8438C699.266 95.8438 704.844 97.9375 709.156 102.125C713.5 106.312 715.922 112 716.422 119.188L716.516 122.656C716.516 130.438 714.344 136.688 710 141.406C705.656 146.094 699.828 148.438 692.516 148.438C685.203 148.438 679.359 146.094 674.984 141.406C670.641 136.719 668.469 130.344 668.469 122.281V121.672ZM682.016 122.656C682.016 127.469 682.922 131.156 684.734 133.719C686.547 136.25 689.141 137.516 692.516 137.516C695.797 137.516 698.359 136.266 700.203 133.766C702.047 131.234 702.969 127.203 702.969 121.672C702.969 116.953 702.047 113.297 700.203 110.703C698.359 108.109 695.766 106.812 692.422 106.812C689.109 106.812 686.547 108.109 684.734 110.703C682.922 113.266 682.016 117.25 682.016 122.656ZM737.562 96.7812L737.984 102.453C741.578 98.0469 746.438 95.8438 752.562 95.8438C759.094 95.8438 763.578 98.4219 766.016 103.578C769.578 98.4219 774.656 95.8438 781.25 95.8438C786.75 95.8438 790.844 97.4531 793.531 100.672C796.219 103.859 797.562 108.672 797.562 115.109V147.5H783.969V115.156C783.969 112.281 783.406 110.188 782.281 108.875C781.156 107.531 779.172 106.859 776.328 106.859C772.266 106.859 769.453 108.797 767.891 112.672L767.938 147.5H754.391V115.203C754.391 112.266 753.812 110.141 752.656 108.828C751.5 107.516 749.531 106.859 746.75 106.859C742.906 106.859 740.125 108.453 738.406 111.641V147.5H724.859V96.7812H737.562ZM853.672 122.609C853.672 130.422 851.891 136.688 848.328 141.406C844.797 146.094 840.016 148.438 833.984 148.438C828.859 148.438 824.719 146.656 821.562 143.094V167H808.016V96.7812H820.578L821.047 101.75C824.328 97.8125 828.609 95.8438 833.891 95.8438C840.141 95.8438 845 98.1562 848.469 102.781C851.938 107.406 853.672 113.781 853.672 121.906V122.609ZM840.125 121.625C840.125 116.906 839.281 113.266 837.594 110.703C835.938 108.141 833.516 106.859 830.328 106.859C826.078 106.859 823.156 108.484 821.562 111.734V132.5C823.219 135.844 826.172 137.516 830.422 137.516C836.891 137.516 840.125 132.219 840.125 121.625ZM860 121.672C860 116.641 860.969 112.156 862.906 108.219C864.844 104.281 867.625 101.234 871.25 99.0781C874.906 96.9219 879.141 95.8438 883.953 95.8438C890.797 95.8438 896.375 97.9375 900.688 102.125C905.031 106.312 907.453 112 907.953 119.188L908.047 122.656C908.047 130.438 905.875 136.688 901.531 141.406C897.188 146.094 891.359 148.438 884.047 148.438C876.734 148.438 870.891 146.094 866.516 141.406C862.172 136.719 860 130.344 860 122.281V121.672ZM873.547 122.656C873.547 127.469 874.453 131.156 876.266 133.719C878.078 136.25 880.672 137.516 884.047 137.516C887.328 137.516 889.891 136.266 891.734 133.766C893.578 131.234 894.5 127.203 894.5 121.672C894.5 116.953 893.578 113.297 891.734 110.703C889.891 108.109 887.297 106.812 883.953 106.812C880.641 106.812 878.078 108.109 876.266 110.703C874.453 113.266 873.547 117.25 873.547 122.656ZM928.859 96.7812L929.281 102.641C932.906 98.1094 937.766 95.8438 943.859 95.8438C949.234 95.8438 953.234 97.4219 955.859 100.578C958.484 103.734 959.828 108.453 959.891 114.734V147.5H946.344V115.062C946.344 112.188 945.719 110.109 944.469 108.828C943.219 107.516 941.141 106.859 938.234 106.859C934.422 106.859 931.562 108.484 929.656 111.734V147.5H916.109V96.7812H928.859ZM993.547 148.438C986.109 148.438 980.047 146.156 975.359 141.594C970.703 137.031 968.375 130.953 968.375 123.359V122.047C968.375 116.953 969.359 112.406 971.328 108.406C973.297 104.375 976.078 101.281 979.672 99.125C983.297 96.9375 987.422 95.8438 992.047 95.8438C998.984 95.8438 1004.44 98.0312 1008.41 102.406C1012.41 106.781 1014.41 112.984 1014.41 121.016V126.547H982.109C982.547 129.859 983.859 132.516 986.047 134.516C988.266 136.516 991.062 137.516 994.438 137.516C999.656 137.516 1003.73 135.625 1006.67 131.844L1013.33 139.297C1011.3 142.172 1008.55 144.422 1005.08 146.047C1001.61 147.641 997.766 148.438 993.547 148.438ZM992 106.812C989.312 106.812 987.125 107.719 985.438 109.531C983.781 111.344 982.719 113.938 982.25 117.312H1001.09V116.234C1001.03 113.234 1000.22 110.922 998.656 109.297C997.094 107.641 994.875 106.812 992 106.812ZM1034.61 96.7812L1035.03 102.641C1038.66 98.1094 1043.52 95.8438 1049.61 95.8438C1054.98 95.8438 1058.98 97.4219 1061.61 100.578C1064.23 103.734 1065.58 108.453 1065.64 114.734V147.5H1052.09V115.062C1052.09 112.188 1051.47 110.109 1050.22 108.828C1048.97 107.516 1046.89 106.859 1043.98 106.859C1040.17 106.859 1037.31 108.484 1035.41 111.734V147.5H1021.86V96.7812H1034.61ZM1092.17 84.3125V96.7812H1100.84V106.719H1092.17V132.031C1092.17 133.906 1092.53 135.25 1093.25 136.062C1093.97 136.875 1095.34 137.281 1097.38 137.281C1098.88 137.281 1100.2 137.172 1101.36 136.953V147.219C1098.7 148.031 1095.97 148.438 1093.16 148.438C1083.66 148.438 1078.81 143.641 1078.62 134.047V106.719H1071.22V96.7812H1078.62V84.3125H1092.17ZM1135.86 133.484C1135.86 131.828 1135.03 130.531 1133.38 129.594C1131.75 128.625 1129.12 127.766 1125.5 127.016C1113.44 124.484 1107.41 119.359 1107.41 111.641C1107.41 107.141 1109.27 103.391 1112.98 100.391C1116.73 97.3594 1121.62 95.8438 1127.66 95.8438C1134.09 95.8438 1139.23 97.3594 1143.08 100.391C1146.95 103.422 1148.89 107.359 1148.89 112.203H1135.34C1135.34 110.266 1134.72 108.672 1133.47 107.422C1132.22 106.141 1130.27 105.5 1127.61 105.5C1125.33 105.5 1123.56 106.016 1122.31 107.047C1121.06 108.078 1120.44 109.391 1120.44 110.984C1120.44 112.484 1121.14 113.703 1122.55 114.641C1123.98 115.547 1126.39 116.344 1129.77 117.031C1133.14 117.688 1135.98 118.438 1138.3 119.281C1145.45 121.906 1149.03 126.453 1149.03 132.922C1149.03 137.547 1147.05 141.297 1143.08 144.172C1139.11 147.016 1133.98 148.438 1127.7 148.438C1123.45 148.438 1119.67 147.688 1116.36 146.188C1113.08 144.656 1110.5 142.578 1108.62 139.953C1106.75 137.297 1105.81 134.438 1105.81 131.375H1118.66C1118.78 133.781 1119.67 135.625 1121.33 136.906C1122.98 138.188 1125.2 138.828 1127.98 138.828C1130.58 138.828 1132.53 138.344 1133.84 137.375C1135.19 136.375 1135.86 135.078 1135.86 133.484ZM1196 147.5H1182.41V75.5H1196V147.5ZM1221.5 147.5H1207.91V96.7812H1221.5V147.5ZM1207.11 83.6562C1207.11 81.625 1207.78 79.9531 1209.12 78.6406C1210.5 77.3281 1212.36 76.6719 1214.7 76.6719C1217.02 76.6719 1218.86 77.3281 1220.23 78.6406C1221.61 79.9531 1222.3 81.625 1222.3 83.6562C1222.3 85.7188 1221.59 87.4062 1220.19 88.7188C1218.81 90.0312 1216.98 90.6875 1214.7 90.6875C1212.42 90.6875 1210.58 90.0312 1209.17 88.7188C1207.8 87.4062 1207.11 85.7188 1207.11 83.6562ZM1278.41 122.609C1278.41 130.734 1276.67 137.078 1273.2 141.641C1269.73 146.172 1264.89 148.438 1258.67 148.438C1253.17 148.438 1248.78 146.328 1245.5 142.109L1244.89 147.5H1232.7V75.5H1246.25V101.328C1249.38 97.6719 1253.48 95.8438 1258.58 95.8438C1264.77 95.8438 1269.61 98.125 1273.11 102.688C1276.64 107.219 1278.41 113.609 1278.41 121.859V122.609ZM1264.86 121.625C1264.86 116.5 1264.05 112.766 1262.42 110.422C1260.8 108.047 1258.38 106.859 1255.16 106.859C1250.84 106.859 1247.88 108.625 1246.25 112.156V132.172C1247.91 135.734 1250.91 137.516 1255.25 137.516C1259.62 137.516 1262.5 135.359 1263.88 131.047C1264.53 128.984 1264.86 125.844 1264.86 121.625ZM1315.3 109.484C1313.45 109.234 1311.83 109.109 1310.42 109.109C1305.3 109.109 1301.94 110.844 1300.34 114.312V147.5H1286.8V96.7812H1299.59L1299.97 102.828C1302.69 98.1719 1306.45 95.8438 1311.27 95.8438C1312.77 95.8438 1314.17 96.0469 1315.48 96.4531L1315.3 109.484ZM1349.84 147.5C1349.22 146.281 1348.77 144.766 1348.48 142.953C1345.2 146.609 1340.94 148.438 1335.69 148.438C1330.72 148.438 1326.59 147 1323.31 144.125C1320.06 141.25 1318.44 137.625 1318.44 133.25C1318.44 127.875 1320.42 123.75 1324.39 120.875C1328.39 118 1334.16 116.547 1341.69 116.516H1347.92V113.609C1347.92 111.266 1347.31 109.391 1346.09 107.984C1344.91 106.578 1343.02 105.875 1340.42 105.875C1338.14 105.875 1336.34 106.422 1335.03 107.516C1333.75 108.609 1333.11 110.109 1333.11 112.016H1319.56C1319.56 109.078 1320.47 106.359 1322.28 103.859C1324.09 101.359 1326.66 99.4062 1329.97 98C1333.28 96.5625 1337 95.8438 1341.12 95.8438C1347.38 95.8438 1352.33 97.4219 1355.98 100.578C1359.67 103.703 1361.52 108.109 1361.52 113.797V135.781C1361.55 140.594 1362.22 144.234 1363.53 146.703V147.5H1349.84ZM1338.64 138.078C1340.64 138.078 1342.48 137.641 1344.17 136.766C1345.86 135.859 1347.11 134.656 1347.92 133.156V124.438H1342.86C1336.08 124.438 1332.47 126.781 1332.03 131.469L1331.98 132.266C1331.98 133.953 1332.58 135.344 1333.77 136.438C1334.95 137.531 1336.58 138.078 1338.64 138.078ZM1400.42 109.484C1398.58 109.234 1396.95 109.109 1395.55 109.109C1390.42 109.109 1387.06 110.844 1385.47 114.312V147.5H1371.92V96.7812H1384.72L1385.09 102.828C1387.81 98.1719 1391.58 95.8438 1396.39 95.8438C1397.89 95.8438 1399.3 96.0469 1400.61 96.4531L1400.42 109.484ZM1426.77 128.328L1436.14 96.7812H1450.67L1430.28 155.375L1429.16 158.047C1426.12 164.672 1421.12 167.984 1414.16 167.984C1412.19 167.984 1410.19 167.688 1408.16 167.094V156.828L1410.22 156.875C1412.78 156.875 1414.69 156.484 1415.94 155.703C1417.22 154.922 1418.22 153.625 1418.94 151.812L1420.53 147.641L1402.77 96.7812H1417.34L1426.77 128.328Z" fill="black"/>
</svg>
