<svg width="128" height="128" fill="none" xmlns="http://www.w3.org/2000/svg"><path fill-rule="evenodd" clip-rule="evenodd" d="M20 0A20 20 0 0 0 0 20v88a20 20 0 0 0 20 20h88a20 20 0 0 0 20-20V20a20 20 0 0 0-20-20H20Zm70.18 99.98c6.4-5.5 9.93-13.02 10.62-22.58H82.5c-.41 5.41-2.02 9.42-4.83 12.02-2.77 2.57-6.98 3.85-12.63 3.85-6.27 0-10.87-2.22-13.8-6.66-2.89-4.43-4.33-11.45-4.33-21.05v-6.72c.08-9.2 1.63-15.97 4.64-20.32 3.05-4.4 7.63-6.6 13.73-6.6 5.62 0 9.79 1.3 12.51 3.91 2.77 2.57 4.38 6.72 4.83 12.45h18.3c-.97-9.92-4.6-17.64-10.86-23.13-6.26-5.5-14.52-8.24-24.78-8.24-7.4 0-13.91 1.75-19.53 5.25-5.57 3.46-9.87 8.44-12.88 14.95-3 6.52-4.51 14.04-4.51 22.59v5.43c0 13.39 3.25 23.93 9.76 31.62 6.55 7.65 15.52 11.47 26.92 11.47 10.41 0 18.8-2.75 25.14-8.24Z" fill="#000"/></svg>