<svg width="281" height="230" viewBox="0 0 281 230" fill="none" xmlns="http://www.w3.org/2000/svg">
<rect x="1.5" y="1" width="278" height="228" rx="19" fill="white"/>
<rect x="65.5" y="40" width="150" height="16" rx="8" fill="#1A1A1A"/>
<rect x="40.5" y="77" width="200" height="12" rx="6" fill="#B7BFC8"/>
<rect x="70.5" y="99" width="140" height="12" rx="6" fill="#B7BFC8"/>
<rect x="46.5" y="152" width="188" height="48" rx="10" fill="#107AFF"/>
<path d="M86.6641 178.316C86.5312 180.152 85.8516 181.598 84.625 182.652C83.4062 183.707 81.7969 184.234 79.7969 184.234C77.6094 184.234 75.8867 183.5 74.6289 182.031C73.3789 180.555 72.7539 178.531 72.7539 175.961V174.918C72.7539 173.277 73.043 171.832 73.6211 170.582C74.1992 169.332 75.0234 168.375 76.0938 167.711C77.1719 167.039 78.4219 166.703 79.8438 166.703C81.8125 166.703 83.3984 167.23 84.6016 168.285C85.8047 169.34 86.5 170.82 86.6875 172.727H83.1719C83.0859 171.625 82.7773 170.828 82.2461 170.336C81.7227 169.836 80.9219 169.586 79.8438 169.586C78.6719 169.586 77.793 170.008 77.207 170.852C76.6289 171.688 76.332 172.988 76.3164 174.754V176.043C76.3164 177.887 76.5938 179.234 77.1484 180.086C77.7109 180.938 78.5938 181.363 79.7969 181.363C80.8828 181.363 81.6914 181.117 82.2227 180.625C82.7617 180.125 83.0703 179.355 83.1484 178.316H86.6641ZM88.2227 177.543C88.2227 176.285 88.4648 175.164 88.9492 174.18C89.4336 173.195 90.1289 172.434 91.0352 171.895C91.9492 171.355 93.0078 171.086 94.2109 171.086C95.9219 171.086 97.3164 171.609 98.3945 172.656C99.4805 173.703 100.086 175.125 100.211 176.922L100.234 177.789C100.234 179.734 99.6914 181.297 98.6055 182.477C97.5195 183.648 96.0625 184.234 94.2344 184.234C92.4062 184.234 90.9453 183.648 89.8516 182.477C88.7656 181.305 88.2227 179.711 88.2227 177.695V177.543ZM91.6094 177.789C91.6094 178.992 91.8359 179.914 92.2891 180.555C92.7422 181.188 93.3906 181.504 94.2344 181.504C95.0547 181.504 95.6953 181.191 96.1562 180.566C96.6172 179.934 96.8477 178.926 96.8477 177.543C96.8477 176.363 96.6172 175.449 96.1562 174.801C95.6953 174.152 95.0469 173.828 94.2109 173.828C93.3828 173.828 92.7422 174.152 92.2891 174.801C91.8359 175.441 91.6094 176.438 91.6094 177.789ZM105.496 171.32L105.602 172.738C106.5 171.637 107.715 171.086 109.246 171.086C110.879 171.086 112 171.73 112.609 173.02C113.5 171.73 114.77 171.086 116.418 171.086C117.793 171.086 118.816 171.488 119.488 172.293C120.16 173.09 120.496 174.293 120.496 175.902V184H117.098V175.914C117.098 175.195 116.957 174.672 116.676 174.344C116.395 174.008 115.898 173.84 115.188 173.84C114.172 173.84 113.469 174.324 113.078 175.293L113.09 184H109.703V175.926C109.703 175.191 109.559 174.66 109.27 174.332C108.98 174.004 108.488 173.84 107.793 173.84C106.832 173.84 106.137 174.238 105.707 175.035V184H102.32V171.32H105.496ZM134.523 177.777C134.523 179.73 134.078 181.297 133.188 182.477C132.305 183.648 131.109 184.234 129.602 184.234C128.32 184.234 127.285 183.789 126.496 182.898V188.875H123.109V171.32H126.25L126.367 172.562C127.188 171.578 128.258 171.086 129.578 171.086C131.141 171.086 132.355 171.664 133.223 172.82C134.09 173.977 134.523 175.57 134.523 177.602V177.777ZM131.137 177.531C131.137 176.352 130.926 175.441 130.504 174.801C130.09 174.16 129.484 173.84 128.688 173.84C127.625 173.84 126.895 174.246 126.496 175.059V180.25C126.91 181.086 127.648 181.504 128.711 181.504C130.328 181.504 131.137 180.18 131.137 177.531ZM136.105 177.543C136.105 176.285 136.348 175.164 136.832 174.18C137.316 173.195 138.012 172.434 138.918 171.895C139.832 171.355 140.891 171.086 142.094 171.086C143.805 171.086 145.199 171.609 146.277 172.656C147.363 173.703 147.969 175.125 148.094 176.922L148.117 177.789C148.117 179.734 147.574 181.297 146.488 182.477C145.402 183.648 143.945 184.234 142.117 184.234C140.289 184.234 138.828 183.648 137.734 182.477C136.648 181.305 136.105 179.711 136.105 177.695V177.543ZM139.492 177.789C139.492 178.992 139.719 179.914 140.172 180.555C140.625 181.188 141.273 181.504 142.117 181.504C142.938 181.504 143.578 181.191 144.039 180.566C144.5 179.934 144.73 178.926 144.73 177.543C144.73 176.363 144.5 175.449 144.039 174.801C143.578 174.152 142.93 173.828 142.094 173.828C141.266 173.828 140.625 174.152 140.172 174.801C139.719 175.441 139.492 176.438 139.492 177.789ZM153.32 171.32L153.426 172.785C154.332 171.652 155.547 171.086 157.07 171.086C158.414 171.086 159.414 171.48 160.07 172.27C160.727 173.059 161.062 174.238 161.078 175.809V184H157.691V175.891C157.691 175.172 157.535 174.652 157.223 174.332C156.91 174.004 156.391 173.84 155.664 173.84C154.711 173.84 153.996 174.246 153.52 175.059V184H150.133V171.32H153.32ZM169.492 184.234C167.633 184.234 166.117 183.664 164.945 182.523C163.781 181.383 163.199 179.863 163.199 177.965V177.637C163.199 176.363 163.445 175.227 163.938 174.227C164.43 173.219 165.125 172.445 166.023 171.906C166.93 171.359 167.961 171.086 169.117 171.086C170.852 171.086 172.215 171.633 173.207 172.727C174.207 173.82 174.707 175.371 174.707 177.379V178.762H166.633C166.742 179.59 167.07 180.254 167.617 180.754C168.172 181.254 168.871 181.504 169.715 181.504C171.02 181.504 172.039 181.031 172.773 180.086L174.438 181.949C173.93 182.668 173.242 183.23 172.375 183.637C171.508 184.035 170.547 184.234 169.492 184.234ZM169.105 173.828C168.434 173.828 167.887 174.055 167.465 174.508C167.051 174.961 166.785 175.609 166.668 176.453H171.379V176.184C171.363 175.434 171.16 174.855 170.77 174.449C170.379 174.035 169.824 173.828 169.105 173.828ZM179.758 171.32L179.863 172.785C180.77 171.652 181.984 171.086 183.508 171.086C184.852 171.086 185.852 171.48 186.508 172.27C187.164 173.059 187.5 174.238 187.516 175.809V184H184.129V175.891C184.129 175.172 183.973 174.652 183.66 174.332C183.348 174.004 182.828 173.84 182.102 173.84C181.148 173.84 180.434 174.246 179.957 175.059V184H176.57V171.32H179.758ZM194.148 168.203V171.32H196.316V173.805H194.148V180.133C194.148 180.602 194.238 180.938 194.418 181.141C194.598 181.344 194.941 181.445 195.449 181.445C195.824 181.445 196.156 181.418 196.445 181.363V183.93C195.781 184.133 195.098 184.234 194.395 184.234C192.02 184.234 190.809 183.035 190.762 180.637V173.805H188.91V171.32H190.762V168.203H194.148ZM205.07 180.496C205.07 180.082 204.863 179.758 204.449 179.523C204.043 179.281 203.387 179.066 202.48 178.879C199.465 178.246 197.957 176.965 197.957 175.035C197.957 173.91 198.422 172.973 199.352 172.223C200.289 171.465 201.512 171.086 203.02 171.086C204.629 171.086 205.914 171.465 206.875 172.223C207.844 172.98 208.328 173.965 208.328 175.176H204.941C204.941 174.691 204.785 174.293 204.473 173.98C204.16 173.66 203.672 173.5 203.008 173.5C202.438 173.5 201.996 173.629 201.684 173.887C201.371 174.145 201.215 174.473 201.215 174.871C201.215 175.246 201.391 175.551 201.742 175.785C202.102 176.012 202.703 176.211 203.547 176.383C204.391 176.547 205.102 176.734 205.68 176.945C207.469 177.602 208.363 178.738 208.363 180.355C208.363 181.512 207.867 182.449 206.875 183.168C205.883 183.879 204.602 184.234 203.031 184.234C201.969 184.234 201.023 184.047 200.195 183.672C199.375 183.289 198.73 182.77 198.262 182.113C197.793 181.449 197.559 180.734 197.559 179.969H200.77C200.801 180.57 201.023 181.031 201.438 181.352C201.852 181.672 202.406 181.832 203.102 181.832C203.75 181.832 204.238 181.711 204.566 181.469C204.902 181.219 205.07 180.895 205.07 180.496Z" fill="white"/>
<rect x="1.5" y="1" width="278" height="228" rx="19" stroke="#BAC1CE" stroke-width="2"/>
</svg>
