<svg width="80" height="36" viewBox="0 0 80 36" fill="none" xmlns="http://www.w3.org/2000/svg">
<rect x="0.5" y="1" width="79" height="34" rx="4.5" fill="#0F7BFF"/>
<path d="M17.4453 23.5V12.125H21.3438C22.6302 12.125 23.6094 12.3828 24.2812 12.8984C24.9531 13.4141 25.2891 14.1823 25.2891 15.2031C25.2891 15.724 25.1484 16.1927 24.8672 16.6094C24.5859 17.026 24.1745 17.349 23.6328 17.5781C24.2474 17.7448 24.7214 18.0599 25.0547 18.5234C25.3932 18.9818 25.5625 19.5339 25.5625 20.1797C25.5625 21.2474 25.2188 22.0677 24.5312 22.6406C23.849 23.2135 22.8698 23.5 21.5938 23.5H17.4453ZM19.4219 18.3672V21.9219H21.6172C22.237 21.9219 22.7214 21.7682 23.0703 21.4609C23.4193 21.1536 23.5938 20.7266 23.5938 20.1797C23.5938 18.9974 22.9896 18.3932 21.7812 18.3672H19.4219ZM19.4219 16.9141H21.3594C21.974 16.9141 22.4531 16.776 22.7969 16.5C23.1458 16.2188 23.3203 15.8229 23.3203 15.3125C23.3203 14.75 23.1589 14.3438 22.8359 14.0938C22.5182 13.8438 22.0208 13.7188 21.3438 13.7188H19.4219V16.9141ZM32.4766 22.6719C31.9193 23.3281 31.1276 23.6562 30.1016 23.6562C29.1849 23.6562 28.4896 23.388 28.0156 22.8516C27.5469 22.3151 27.3125 21.5391 27.3125 20.5234V15.0469H29.2109V20.5C29.2109 21.5729 29.6562 22.1094 30.5469 22.1094C31.4688 22.1094 32.0911 21.7786 32.4141 21.1172V15.0469H34.3125V23.5H32.5234L32.4766 22.6719ZM38.625 12.9922V15.0469H40.1172V16.4531H38.625V21.1719C38.625 21.4948 38.6875 21.7292 38.8125 21.875C38.9427 22.0156 39.1719 22.0859 39.5 22.0859C39.7188 22.0859 39.9401 22.0599 40.1641 22.0078V23.4766C39.7318 23.5964 39.3151 23.6562 38.9141 23.6562C37.4557 23.6562 36.7266 22.8516 36.7266 21.2422V16.4531H35.3359V15.0469H36.7266V12.9922H38.625ZM43.9531 12.9922V15.0469H45.4453V16.4531H43.9531V21.1719C43.9531 21.4948 44.0156 21.7292 44.1406 21.875C44.2708 22.0156 44.5 22.0859 44.8281 22.0859C45.0469 22.0859 45.2682 22.0599 45.4922 22.0078V23.4766C45.0599 23.5964 44.6432 23.6562 44.2422 23.6562C42.7839 23.6562 42.0547 22.8516 42.0547 21.2422V16.4531H40.6641V15.0469H42.0547V12.9922H43.9531ZM46.3125 19.1953C46.3125 18.3672 46.4766 17.6224 46.8047 16.9609C47.1328 16.2943 47.5938 15.7839 48.1875 15.4297C48.7812 15.0703 49.4635 14.8906 50.2344 14.8906C51.375 14.8906 52.2995 15.2578 53.0078 15.9922C53.7214 16.7266 54.1068 17.7005 54.1641 18.9141L54.1719 19.3594C54.1719 20.1927 54.0104 20.9375 53.6875 21.5938C53.3698 22.25 52.9115 22.7578 52.3125 23.1172C51.7188 23.4766 51.0312 23.6562 50.25 23.6562C49.0573 23.6562 48.1016 23.2604 47.3828 22.4688C46.6693 21.6719 46.3125 20.612 46.3125 19.2891V19.1953ZM48.2109 19.3594C48.2109 20.2292 48.3906 20.9115 48.75 21.4062C49.1094 21.8958 49.6094 22.1406 50.25 22.1406C50.8906 22.1406 51.388 21.8906 51.7422 21.3906C52.1016 20.8906 52.2812 20.1589 52.2812 19.1953C52.2812 18.3411 52.0964 17.6641 51.7266 17.1641C51.362 16.6641 50.8646 16.4141 50.2344 16.4141C49.6146 16.4141 49.1224 16.6615 48.7578 17.1562C48.3932 17.6458 48.2109 18.3802 48.2109 19.3594ZM57.5391 15.0469L57.5938 16.0234C58.2188 15.2682 59.0391 14.8906 60.0547 14.8906C61.8151 14.8906 62.7109 15.8984 62.7422 17.9141V23.5H60.8438V18.0234C60.8438 17.487 60.7266 17.0911 60.4922 16.8359C60.263 16.5755 59.8854 16.4453 59.3594 16.4453C58.5938 16.4453 58.0234 16.7917 57.6484 17.4844V23.5H55.75V15.0469H57.5391Z" fill="white"/>
<rect x="0.5" y="1" width="79" height="34" rx="4.5" stroke="#145EB8"/>
</svg>
