<svg width="76" height="37" viewBox="0 0 76 37" fill="none" xmlns="http://www.w3.org/2000/svg">
<rect x="0.5" y="1" width="75" height="35" rx="4.5" fill="#1682ED"/>
<path d="M19.8359 18.6797H16.9531L16.9375 17.4688H19.5547C19.987 17.4688 20.3646 17.3958 20.6875 17.25C21.0104 17.1042 21.2604 16.8958 21.4375 16.625C21.6198 16.349 21.7109 16.0208 21.7109 15.6406C21.7109 15.224 21.6302 14.8854 21.4688 14.625C21.3125 14.3594 21.0703 14.1667 20.7422 14.0469C20.4193 13.9219 20.0078 13.8594 19.5078 13.8594H17.2891V24H15.7812V12.625H19.5078C20.0911 12.625 20.612 12.6849 21.0703 12.8047C21.5286 12.9193 21.9167 13.1016 22.2344 13.3516C22.5573 13.5964 22.8021 13.9089 22.9688 14.2891C23.1354 14.6693 23.2188 15.125 23.2188 15.6562C23.2188 16.125 23.099 16.5495 22.8594 16.9297C22.6198 17.3047 22.2865 17.612 21.8594 17.8516C21.4375 18.0911 20.9427 18.2448 20.375 18.3125L19.8359 18.6797ZM19.7656 24H16.3594L17.2109 22.7734H19.7656C20.2448 22.7734 20.651 22.6901 20.9844 22.5234C21.3229 22.3568 21.5807 22.1224 21.7578 21.8203C21.9349 21.513 22.0234 21.151 22.0234 20.7344C22.0234 20.3125 21.9479 19.9479 21.7969 19.6406C21.6458 19.3333 21.4089 19.0964 21.0859 18.9297C20.763 18.763 20.3464 18.6797 19.8359 18.6797H17.6875L17.7031 17.4688H20.6406L20.9609 17.9062C21.5078 17.9531 21.9714 18.1094 22.3516 18.375C22.7318 18.6354 23.0208 18.9688 23.2188 19.375C23.4219 19.7812 23.5234 20.2292 23.5234 20.7188C23.5234 21.4271 23.3672 22.026 23.0547 22.5156C22.7474 23 22.3125 23.3698 21.75 23.625C21.1875 23.875 20.526 24 19.7656 24ZM30.7031 22.0469V15.5469H32.1562V24H30.7734L30.7031 22.0469ZM30.9766 20.2656L31.5781 20.25C31.5781 20.8125 31.5182 21.3333 31.3984 21.8125C31.2839 22.2865 31.0964 22.6979 30.8359 23.0469C30.5755 23.3958 30.2344 23.6693 29.8125 23.8672C29.3906 24.0599 28.8776 24.1562 28.2734 24.1562C27.862 24.1562 27.4844 24.0964 27.1406 23.9766C26.8021 23.8568 26.5104 23.6719 26.2656 23.4219C26.0208 23.1719 25.8307 22.8464 25.6953 22.4453C25.5651 22.0443 25.5 21.5625 25.5 21V15.5469H26.9453V21.0156C26.9453 21.3958 26.987 21.7109 27.0703 21.9609C27.1589 22.2057 27.276 22.401 27.4219 22.5469C27.5729 22.6875 27.7396 22.7865 27.9219 22.8438C28.1094 22.901 28.3021 22.9297 28.5 22.9297C29.1146 22.9297 29.6016 22.8125 29.9609 22.5781C30.3203 22.3385 30.5781 22.0182 30.7344 21.6172C30.8958 21.2109 30.9766 20.7604 30.9766 20.2656ZM37.8984 15.5469V16.6562H33.3281V15.5469H37.8984ZM34.875 13.4922H36.3203V21.9062C36.3203 22.1927 36.3646 22.4089 36.4531 22.5547C36.5417 22.7005 36.6562 22.7969 36.7969 22.8438C36.9375 22.8906 37.0885 22.9141 37.25 22.9141C37.3698 22.9141 37.4948 22.9036 37.625 22.8828C37.7604 22.8568 37.862 22.8359 37.9297 22.8203L37.9375 24C37.8229 24.0365 37.6719 24.0703 37.4844 24.1016C37.3021 24.138 37.0807 24.1562 36.8203 24.1562C36.4661 24.1562 36.1406 24.0859 35.8438 23.9453C35.5469 23.8047 35.3099 23.5703 35.1328 23.2422C34.9609 22.9089 34.875 22.4609 34.875 21.8984V13.4922ZM43.1328 15.5469V16.6562H38.5625V15.5469H43.1328ZM40.1094 13.4922H41.5547V21.9062C41.5547 22.1927 41.599 22.4089 41.6875 22.5547C41.776 22.7005 41.8906 22.7969 42.0312 22.8438C42.1719 22.8906 42.3229 22.9141 42.4844 22.9141C42.6042 22.9141 42.7292 22.9036 42.8594 22.8828C42.9948 22.8568 43.0964 22.8359 43.1641 22.8203L43.1719 24C43.0573 24.0365 42.9062 24.0703 42.7188 24.1016C42.5365 24.138 42.3151 24.1562 42.0547 24.1562C41.7005 24.1562 41.375 24.0859 41.0781 23.9453C40.7812 23.8047 40.5443 23.5703 40.3672 23.2422C40.1953 22.9089 40.1094 22.4609 40.1094 21.8984V13.4922ZM44.2891 19.8672V19.6875C44.2891 19.0781 44.3776 18.513 44.5547 17.9922C44.7318 17.4661 44.987 17.0104 45.3203 16.625C45.6536 16.2344 46.0573 15.9323 46.5312 15.7188C47.0052 15.5 47.5365 15.3906 48.125 15.3906C48.7188 15.3906 49.2526 15.5 49.7266 15.7188C50.2057 15.9323 50.612 16.2344 50.9453 16.625C51.2839 17.0104 51.5417 17.4661 51.7188 17.9922C51.8958 18.513 51.9844 19.0781 51.9844 19.6875V19.8672C51.9844 20.4766 51.8958 21.0417 51.7188 21.5625C51.5417 22.0833 51.2839 22.5391 50.9453 22.9297C50.612 23.3151 50.2083 23.6172 49.7344 23.8359C49.2656 24.0495 48.7344 24.1562 48.1406 24.1562C47.5469 24.1562 47.013 24.0495 46.5391 23.8359C46.0651 23.6172 45.6589 23.3151 45.3203 22.9297C44.987 22.5391 44.7318 22.0833 44.5547 21.5625C44.3776 21.0417 44.2891 20.4766 44.2891 19.8672ZM45.7344 19.6875V19.8672C45.7344 20.2891 45.7839 20.6875 45.8828 21.0625C45.9818 21.4323 46.1302 21.7604 46.3281 22.0469C46.5312 22.3333 46.7839 22.5599 47.0859 22.7266C47.388 22.888 47.7396 22.9688 48.1406 22.9688C48.5365 22.9688 48.8828 22.888 49.1797 22.7266C49.4818 22.5599 49.7318 22.3333 49.9297 22.0469C50.1276 21.7604 50.276 21.4323 50.375 21.0625C50.4792 20.6875 50.5312 20.2891 50.5312 19.8672V19.6875C50.5312 19.2708 50.4792 18.8776 50.375 18.5078C50.276 18.1328 50.125 17.8021 49.9219 17.5156C49.724 17.224 49.474 16.9948 49.1719 16.8281C48.875 16.6615 48.526 16.5781 48.125 16.5781C47.7292 16.5781 47.3802 16.6615 47.0781 16.8281C46.7812 16.9948 46.5312 17.224 46.3281 17.5156C46.1302 17.8021 45.9818 18.1328 45.8828 18.5078C45.7839 18.8776 45.7344 19.2708 45.7344 19.6875ZM55.2422 17.3516V24H53.7969V15.5469H55.1641L55.2422 17.3516ZM54.8984 19.4531L54.2969 19.4297C54.3021 18.8516 54.388 18.3177 54.5547 17.8281C54.7214 17.3333 54.9557 16.9036 55.2578 16.5391C55.5599 16.1745 55.9193 15.8932 56.3359 15.6953C56.7578 15.4922 57.224 15.3906 57.7344 15.3906C58.151 15.3906 58.526 15.4479 58.8594 15.5625C59.1927 15.6719 59.4766 15.849 59.7109 16.0938C59.9505 16.3385 60.1328 16.6562 60.2578 17.0469C60.3828 17.4323 60.4453 17.9036 60.4453 18.4609V24H58.9922V18.4453C58.9922 18.0026 58.9271 17.6484 58.7969 17.3828C58.6667 17.112 58.4766 16.9167 58.2266 16.7969C57.9766 16.6719 57.6693 16.6094 57.3047 16.6094C56.9453 16.6094 56.6172 16.6849 56.3203 16.8359C56.0286 16.987 55.776 17.1953 55.5625 17.4609C55.3542 17.7266 55.1901 18.0312 55.0703 18.375C54.9557 18.7135 54.8984 19.0729 54.8984 19.4531Z" fill="white"/>
<rect x="0.5" y="1" width="75" height="35" rx="4.5" stroke="#024FBF"/>
</svg>
