<svg width="75" height="75" viewBox="-250 -250 500 500" xmlns="http://www.w3.org/2000/svg"><path fill="#00175c" d="M 250 0A 250 250 0 0 1 -127.23559026691483 215.200150021857L -89.06491318684039 150.64010501529992A 175 175 0 0 0 175 0Z"></path><path fill="#003394" d="M -132.82527301087876 211.79576683584946A 250 250 0 0 1 -143.727774576065 -204.55397042201807L -100.60944220324551 -143.18777929541264A 175 175 0 0 0 -92.97769110761513 148.25703678509464Z"></path><path fill="#1682ED" d="M -138.32392394749164 -208.2462294106872A 250 250 0 0 1 119.85815331232573 -219.39467423927826L 83.90070731862801 -153.57627196749476A 175 175 0 0 0 -96.82674676324415 -145.77236058748102Z"></path><path fill="#4cb5fe" d="M 125.56016396329406 -216.18197248038678A 250 250 0 0 1 249.9143312438893 -6.544237076968386L 174.94003187072252 -4.58096595387787A 175 175 0 0 0 87.89211477430584 -151.32738073627075Z"></path></svg>